# Blender 5.2.0 LTS
# www.blender.org
mtllib lantern.mtl
o lantern_standing
v -0.166731 0.114070 0.166731
v -0.250000 0.557504 0.250000
v -0.166731 0.114070 -0.166731
v -0.250000 0.557505 -0.250000
v 0.166731 0.114070 0.166731
v 0.250000 0.557504 0.250000
v 0.166731 0.114070 -0.166731
v 0.250000 0.557505 -0.250000
v -0.219917 0.084793 -0.219917
v -0.064096 0.825192 0.064096
v 0.064096 0.825192 0.064096
v 0.064096 0.825192 -0.064096
v -0.064096 0.825192 -0.064096
v -0.219917 0.084793 0.219917
v 0.219917 0.084793 -0.219917
v 0.219917 0.084793 0.219917
v -0.219917 -0.000000 0.219917
v 0.219917 -0.000000 0.219917
v 0.219917 0.000000 -0.219917
v -0.219917 0.000000 -0.219917
v -0.308637 0.574890 0.308637
v -0.320010 0.637896 0.320010
v -0.320010 0.637896 -0.320010
v -0.308637 0.574890 -0.308637
v 0.320010 0.637896 -0.320010
v 0.308637 0.574890 -0.308637
v 0.320010 0.637896 0.320010
v 0.308637 0.574890 0.308637
v -0.176226 0.164633 0.123910
v -0.240505 0.506941 0.188189
v -0.240505 0.506941 -0.188189
v -0.176226 0.164633 -0.123910
v -0.123910 0.164633 -0.176226
v -0.188189 0.506941 -0.240505
v 0.188189 0.506941 -0.240505
v 0.123910 0.164633 -0.176226
v 0.176226 0.164633 -0.123910
v 0.240505 0.506941 -0.188189
v 0.240505 0.506941 0.188189
v 0.176226 0.164633 0.123910
v 0.123910 0.164633 0.176226
v 0.188189 0.506941 0.240505
v -0.188189 0.506941 0.240505
v -0.123910 0.164633 0.176226
v -0.137610 0.188848 0.080980
v -0.179619 0.482726 0.122989
v -0.137610 0.188848 -0.080980
v -0.179619 0.482726 -0.122988
v -0.122988 0.482727 -0.179620
v -0.080979 0.188848 -0.137611
v 0.080980 0.188848 -0.137611
v 0.122989 0.482727 -0.179620
v 0.179620 0.482726 -0.122988
v 0.137611 0.188848 -0.080980
v 0.137611 0.188848 0.080980
v 0.179620 0.482726 0.122989
v 0.122989 0.482726 0.179620
v 0.080980 0.188848 0.137611
v -0.080979 0.188848 0.137611
v -0.122988 0.482726 0.179620
v -0.064096 0.875152 -0.064096
v 0.000000 0.925192 -0.064096
v -0.046107 0.913507 -0.064096
v -0.000000 0.925192 0.064096
v -0.064096 0.875152 0.064096
v -0.046107 0.913507 0.064096
v 0.064096 0.875152 0.064096
v 0.046107 0.913507 0.064096
v 0.064096 0.875152 -0.064096
v 0.046107 0.913507 -0.064096
v 0.029567 0.878745 -0.056345
v 0.013627 0.898645 -0.052595
v -0.010416 0.901448 -0.043476
v -0.028597 0.885266 -0.034249
v -0.030019 0.859498 -0.030408
v -0.013792 0.839431 -0.034249
v 0.010420 0.836943 -0.043476
v 0.028280 0.853282 -0.052595
v -0.046259 0.854252 -0.136029
v -0.057154 0.875781 -0.126977
v -0.068923 0.882549 -0.104960
v -0.074688 0.870378 -0.082685
v -0.070940 0.846280 -0.073411
v -0.059882 0.824543 -0.082685
v -0.048087 0.818044 -0.104960
v -0.042501 0.830418 -0.126977
v -0.153494 0.819614 -0.136029
v -0.157252 0.843448 -0.126977
v -0.151665 0.855822 -0.104960
v -0.139870 0.849323 -0.082685
v -0.128812 0.827586 -0.073411
v -0.125065 0.803488 -0.082685
v -0.130829 0.791317 -0.104960
v -0.142599 0.798085 -0.126977
v -0.229320 0.795121 -0.056345
v -0.228033 0.820584 -0.052595
v -0.210173 0.836923 -0.043476
v -0.185961 0.834435 -0.034249
v -0.169734 0.814368 -0.030408
v -0.171155 0.788600 -0.034249
v -0.189337 0.772418 -0.043476
v -0.213380 0.775221 -0.052595
v -0.229320 0.795121 0.056345
v -0.228033 0.820584 0.052596
v -0.210173 0.836923 0.043476
v -0.185961 0.834435 0.034249
v -0.169734 0.814368 0.030408
v -0.171155 0.788600 0.034249
v -0.189337 0.772418 0.043476
v -0.213380 0.775221 0.052596
v -0.153494 0.819614 0.136029
v -0.157252 0.843448 0.126977
v -0.151666 0.855822 0.104960
v -0.139870 0.849323 0.082685
v -0.128812 0.827586 0.073412
v -0.125065 0.803488 0.082685
v -0.130829 0.791317 0.104960
v -0.142599 0.798085 0.126977
v -0.046259 0.854252 0.136029
v -0.057154 0.875781 0.126977
v -0.068923 0.882549 0.104960
v -0.074688 0.870378 0.082685
v -0.070940 0.846280 0.073412
v -0.059882 0.824543 0.082685
v -0.048087 0.818044 0.104960
v -0.042501 0.830418 0.126977
v 0.029567 0.878745 0.056345
v 0.013627 0.898645 0.052596
v -0.010416 0.901448 0.043476
v -0.028597 0.885266 0.034249
v -0.030019 0.859498 0.030408
v -0.013792 0.839431 0.034249
v 0.010420 0.836943 0.043476
v 0.028280 0.853282 0.052596
vn 0.7358 -0.0098 0.6771
vn -0.5313 0.8472 -0.0000
vn 0.6771 -0.0098 -0.7358
vn -0.7358 -0.0098 -0.6771
vn -0.2565 0.9319 -0.2565
vn 0.2565 0.9319 -0.2565
vn -0.0000 0.8070 0.5906
vn -0.0000 0.8070 -0.5906
vn 0.1451 -0.9787 0.1451
vn 0.1451 -0.9787 -0.1451
vn 0.5906 0.8070 -0.0000
vn -0.1451 -0.9787 0.1451
vn -0.0000 -0.0000 -1.0000
vn -0.1451 -0.9787 -0.1451
vn -0.0000 -0.0000 1.0000
vn -0.2565 0.9319 0.2565
vn 0.2565 0.9319 0.2565
vn -0.0000 -1.0000 -0.0000
vn -1.0000 -0.0000 -0.0000
vn 1.0000 -0.0000 -0.0000
vn -0.9841 -0.1776 -0.0000
vn -0.0000 -0.1776 -0.9841
vn 0.9841 -0.1776 -0.0000
vn -0.0000 -0.1776 0.9841
vn -0.5906 0.8070 -0.0000
vn -0.9828 -0.1846 -0.0000
vn -0.0000 -0.1846 -0.9828
vn 0.9828 -0.1846 -0.0000
vn -0.0000 -0.1846 0.9828
vn -0.9899 -0.1415 -0.0000
vn -0.0000 -0.1415 -0.9899
vn 0.9899 -0.1415 -0.0000
vn -0.0000 -0.1415 0.9899
vn -0.0000 0.8472 -0.5313
vn -0.6771 -0.0098 0.7358
vn -0.3696 -0.9292 -0.0000
vn 0.5313 0.8472 -0.0000
vn -0.0000 -0.9292 -0.3696
vn -0.0000 0.8472 0.5313
vn -0.7358 -0.0098 0.6771
vn 0.3696 -0.9292 -0.0000
vn -0.6771 -0.0098 -0.7358
vn -0.0000 -0.9292 0.3696
vn 0.7358 -0.0098 -0.6771
vn 0.6771 -0.0098 0.7358
vn 0.9761 0.2175 -0.0000
vn -0.9761 0.2175 -0.0000
vn -0.9054 0.4246 -0.0000
vn -0.2457 0.9694 -0.0000
vn -0.0000 1.0000 -0.0000
vn 0.9054 0.4246 -0.0000
vn 0.2457 0.9694 -0.0000
vn 0.8792 0.2840 -0.3827
vn 0.3642 0.1176 -0.9239
vn 0.0708 0.7163 -0.6941
vn 0.4577 0.8413 -0.2875
vn -0.1416 0.9224 -0.3592
vn 0.0586 0.9871 -0.1488
vn -0.6160 0.7744 0.1442
vn -0.4220 0.8371 0.3482
vn -0.9297 0.1039 0.3532
vn -0.4544 0.2575 0.8528
vn -0.3642 -0.1176 0.9239
vn -0.8792 -0.2840 0.3827
vn -0.2179 -0.4746 0.8528
vn -0.6933 -0.6282 0.3532
vn -0.0466 -0.9884 0.1442
vn 0.1475 -0.9258 0.3482
vn 0.6250 -0.7663 -0.1488
vn 0.4248 -0.8310 -0.3592
vn 0.4764 -0.5396 -0.6941
vn 0.8634 -0.4146 -0.2875
vn -0.3642 -0.1176 -0.9239
vn -0.4764 0.5396 -0.6941
vn -0.4248 0.8310 -0.3592
vn -0.1475 0.9258 0.3482
vn 0.2179 0.4746 0.8528
vn 0.3642 0.1176 0.9239
vn 0.4544 -0.2575 0.8528
vn 0.4220 -0.8371 0.3482
vn 0.1416 -0.9224 -0.3592
vn -0.0708 -0.7164 -0.6941
vn -0.8792 -0.2840 -0.3827
vn -0.8634 0.4146 -0.2875
vn -0.6250 0.7663 -0.1488
vn 0.0466 0.9884 0.1442
vn 0.6933 0.6282 0.3532
vn 0.8792 0.2840 0.3827
vn 0.9297 -0.1039 0.3532
vn 0.6160 -0.7744 0.1442
vn -0.0586 -0.9871 -0.1488
vn -0.4577 -0.8413 -0.2875
vn -0.8634 0.4146 0.2875
vn -0.6250 0.7663 0.1488
vn 0.0466 0.9884 -0.1442
vn 0.6933 0.6282 -0.3532
vn 0.9297 -0.1039 -0.3532
vn 0.6160 -0.7744 -0.1442
vn -0.0586 -0.9871 0.1488
vn -0.4577 -0.8413 0.2875
vn -0.4764 0.5396 0.6941
vn -0.4248 0.8310 0.3592
vn -0.1475 0.9258 -0.3482
vn 0.2179 0.4746 -0.8528
vn 0.4544 -0.2575 -0.8528
vn 0.4220 -0.8371 -0.3482
vn 0.1416 -0.9224 0.3592
vn -0.0708 -0.7164 0.6941
vn 0.0708 0.7163 0.6941
vn -0.1416 0.9224 0.3592
vn -0.4220 0.8371 -0.3482
vn -0.4544 0.2575 -0.8528
vn -0.2179 -0.4746 -0.8528
vn 0.1475 -0.9258 -0.3482
vn 0.4248 -0.8310 0.3592
vn 0.4764 -0.5396 0.6941
vn 0.4577 0.8413 0.2875
vn 0.0586 0.9871 0.1488
vn -0.6160 0.7744 -0.1442
vn -0.9297 0.1039 -0.3532
vn -0.6933 -0.6282 -0.3532
vn -0.0466 -0.9884 -0.1442
vn 0.6250 -0.7663 0.1488
vn 0.8634 -0.4146 0.2875
vt 0.323478 0.204607
vt 0.319313 0.004984
vt 0.323259 0.019105
vt 0.325981 0.190486
vt 0.346319 0.204607
vt 0.343816 0.190486
vt 0.342928 0.204607
vt 0.347094 0.004984
vt 0.342869 0.019105
vt 0.340146 0.190486
vt 0.350484 0.004984
vt 0.346538 0.019105
vt 0.286111 0.879152
vt 0.324994 0.879152
vt 0.331195 0.875738
vt 0.279909 0.875738
vt 0.268238 0.924607
vt 0.342866 0.924607
vt 0.313026 0.946447
vt 0.298078 0.946447
vt 0.334703 0.821483
vt 0.341540 0.823511
vt 0.342866 0.908982
vt 0.313026 0.930822
vt 0.276401 0.837108
vt 0.334703 0.837108
vt 0.341540 0.839136
vt 0.269564 0.839136
vt 0.279909 0.828863
vt 0.331195 0.828863
vt 0.331195 0.818976
vt 0.279909 0.818976
vt 0.298078 0.915197
vt 0.313026 0.915197
vt 0.313026 0.915197
vt 0.276401 0.821483
vt 0.269564 0.823511
vt 0.286111 0.863527
vt 0.279909 0.860113
vt 0.324994 0.863527
vt 0.331195 0.860113
vt 0.279909 0.772101
vt 0.331195 0.772101
vt 0.279909 0.813238
vt 0.279909 0.803351
vt 0.331195 0.813238
vt 0.331195 0.803351
vt 0.268238 0.877732
vt 0.269564 0.870386
vt 0.268238 0.893357
vt 0.342866 0.893357
vt 0.341540 0.886011
vt 0.269564 0.886011
vt 0.342866 0.877732
vt 0.341540 0.870386
vt 0.268238 0.908982
vt 0.298078 0.930822
vt 0.286111 0.816652
vt 0.276401 0.868358
vt 0.277508 0.862463
vt 0.285004 0.822548
vt 0.286111 0.832277
vt 0.276401 0.883983
vt 0.283609 0.878088
vt 0.291104 0.838173
vt 0.334703 0.883983
vt 0.327496 0.878088
vt 0.324994 0.832277
vt 0.320000 0.838173
vt 0.324994 0.816652
vt 0.334703 0.868358
vt 0.333596 0.862463
vt 0.326101 0.822548
vt 0.297738 0.231712
vt 0.301108 0.064115
vt 0.293196 0.231712
vt 0.296566 0.064115
vt 0.276838 0.064115
vt 0.280207 0.231712
vt 0.275665 0.231712
vt 0.272296 0.064115
vt 0.326869 0.204607
vt 0.329651 0.190486
vt 0.326869 0.204607
vt 0.322703 0.004984
vt 0.326928 0.019105
vt 0.326928 0.019105
vt 0.342928 0.204607
vt 0.342869 0.019105
vt 0.311317 0.915197
vt 0.299787 0.915197
vt 0.307191 0.915197
vt 0.303913 0.915197
vt 0.313026 0.930822
vt 0.298078 0.959344
vt 0.298078 0.959344
vt 0.298078 0.962072
vt 0.303913 0.962072
vt 0.303913 0.962072
vt 0.313026 0.959344
vt 0.313026 0.959344
vt 0.313026 0.962072
vt 0.307191 0.962072
vt 0.307191 0.962072
vt 0.298078 0.930822
vt 0.298078 0.915197
vt 0.458924 0.821250
vt 0.444175 0.821250
vt 0.443349 0.881008
vt 0.456932 0.881008
vt 0.441302 0.918020
vt 0.451989 0.918021
vt 0.439143 0.881711
vt 0.446776 0.881711
vt 0.446776 0.850461
vt 0.439143 0.850461
vt 0.438204 0.790000
vt 0.444507 0.790000
vt 0.439143 0.776414
vt 0.446776 0.776414
vt 0.446776 0.807664
vt 0.439143 0.807664
vt 0.441302 0.802604
vt 0.451989 0.802604
vt 0.451989 0.786979
vt 0.441302 0.786979
vt 0.443349 0.792742
vt 0.456932 0.792742
vt 0.444175 0.805625
vt 0.458924 0.805625
vt 0.423318 0.821250
vt 0.424143 0.881008
vt 0.426191 0.918020
vt 0.428350 0.881711
vt 0.428350 0.850461
vt 0.429289 0.790000
vt 0.428350 0.776414
vt 0.428350 0.807664
vt 0.426191 0.802604
vt 0.426191 0.786979
vt 0.424143 0.792742
vt 0.423318 0.805625
vt 0.408569 0.821250
vt 0.410562 0.881008
vt 0.415504 0.918021
vt 0.420717 0.881711
vt 0.420717 0.850461
vt 0.422985 0.790000
vt 0.420717 0.776414
vt 0.420717 0.807664
vt 0.415504 0.802604
vt 0.415504 0.786979
vt 0.410562 0.792742
vt 0.408569 0.805625
vt 0.423318 0.821250
vt 0.424143 0.881008
vt 0.426191 0.918021
vt 0.428350 0.881711
vt 0.428350 0.850461
vt 0.428350 0.776414
vt 0.428350 0.807664
vt 0.426191 0.802604
vt 0.426191 0.786979
vt 0.424143 0.792742
vt 0.423318 0.805625
vt 0.444175 0.821250
vt 0.443349 0.881008
vt 0.441302 0.918021
vt 0.439143 0.881711
vt 0.439143 0.850461
vt 0.439143 0.776414
vt 0.439143 0.807664
vt 0.441302 0.802604
vt 0.441302 0.786979
vt 0.443349 0.792742
vt 0.444175 0.805625
s 1
usemtl HalloweenBits
f 37/1/1 38/2/1 53/3/1 54/4/1
f 32/5/2 29/5/2 45/6/2 47/6/2
f 33/7/3 34/8/3 49/9/3 50/10/3
f 29/5/4 30/11/4 46/12/4 45/6/4
f 3/13/5 7/14/6 15/15/6 9/16/5
f 22/17/7 27/18/7 11/19/7 10/20/7
f 25/18/8 23/17/8 13/20/8 12/19/8
f 6/21/9 8/21/10 26/22/10 28/22/9
f 27/23/11 25/23/11 12/24/11 11/24/11
f 2/25/12 6/26/9 28/27/9 21/28/12
f 9/29/13 15/30/13 19/31/13 20/32/13
f 8/26/10 4/25/14 24/28/14 26/27/10
f 10/33/15 11/34/15 67/35/15 65/33/15
f 4/36/14 2/36/12 21/37/12 24/37/14
f 1/38/16 3/38/5 9/39/5 14/39/16
f 7/40/6 5/40/17 16/41/17 15/41/6
f 5/14/17 1/13/16 14/16/16 16/15/17
f 20/42/18 19/43/18 18/43/18 17/42/18
f 16/30/15 14/29/15 17/32/15 18/31/15
f 14/44/19 9/44/19 20/45/19 17/45/19
f 15/46/20 16/46/20 18/47/20 19/47/20
f 22/48/21 23/48/21 24/49/21 21/49/21
f 23/50/22 25/51/22 26/52/22 24/53/22
f 25/54/23 27/54/23 28/55/23 26/55/23
f 27/51/24 22/50/24 21/53/24 28/52/24
f 23/56/25 22/56/25 10/57/25 13/57/25
f 1/58/26 2/59/26 30/60/26 29/61/26
f 2/59/26 4/59/26 31/60/26 30/60/26
f 4/59/26 3/58/26 32/61/26 31/60/26
f 3/58/26 1/58/26 29/61/26 32/61/26
f 3/62/27 4/63/27 34/64/27 33/65/27
f 4/63/27 8/66/27 35/67/27 34/64/27
f 8/66/27 7/68/27 36/69/27 35/67/27
f 7/68/27 3/62/27 33/65/27 36/69/27
f 7/70/28 8/71/28 38/72/28 37/73/28
f 8/71/28 6/71/28 39/72/28 38/72/28
f 6/71/28 5/70/28 40/73/28 39/72/28
f 5/70/28 7/70/28 37/73/28 40/73/28
f 5/68/29 6/66/29 42/67/29 41/69/29
f 6/66/29 2/63/29 43/64/29 42/67/29
f 2/63/29 1/62/29 44/65/29 43/64/29
f 1/62/29 5/68/29 41/69/29 44/65/29
f 45/74/30 46/75/30 48/75/30 47/74/30
f 50/76/31 49/77/31 52/78/31 51/79/31
f 54/80/32 53/81/32 56/81/32 55/80/32
f 58/79/33 57/78/33 60/77/33 59/76/33
f 36/82/34 33/7/34 50/10/34 51/83/34
f 41/84/35 42/85/35 57/86/35 58/83/35
f 30/11/36 31/11/36 48/12/36 46/12/36
f 40/1/37 37/1/37 54/4/37 55/4/37
f 34/8/38 35/85/38 52/87/38 49/9/38
f 44/88/39 41/84/39 58/83/39 59/10/39
f 31/11/40 32/5/40 47/6/40 48/12/40
f 38/2/41 39/2/41 56/3/41 53/3/41
f 35/85/42 36/82/42 51/83/42 52/87/42
f 42/85/43 43/8/43 60/89/43 57/86/43
f 39/2/44 40/1/44 55/4/44 56/3/44
f 43/8/45 44/88/45 59/10/45 60/89/45
f 70/90/13 63/91/13 62/92/13
f 66/91/15 68/90/15 64/93/15
f 11/24/20 12/24/20 69/94/46 67/24/46
f 61/95/47 65/96/47 66/95/48 63/95/48
f 63/97/49 66/97/49 64/98/50 62/99/50
f 67/100/46 69/101/46 70/100/51 68/100/51
f 68/102/52 70/102/52 62/103/50 64/104/50
f 13/57/19 10/57/19 65/105/47 61/57/47
f 65/33/15 67/35/15 68/90/15 66/91/15
f 69/34/13 61/106/13 63/91/13 70/90/13
f 12/34/13 13/33/13 61/106/13 69/34/13
f 71/107/53 79/108/54 80/109/55 72/110/56
f 72/110/56 80/109/55 81/111/57 73/112/58
f 73/112/59 81/111/60 82/113/60 74/114/59
f 74/115/61 82/116/62 83/117/63 75/118/64
f 75/118/64 83/117/63 84/119/65 76/120/66
f 76/121/67 84/122/68 85/123/68 77/124/67
f 77/125/69 85/126/70 86/127/71 78/128/72
f 78/128/72 86/127/71 79/129/54 71/130/53
f 79/108/54 87/131/73 88/132/74 80/109/55
f 80/109/55 88/132/74 89/133/75 81/111/57
f 81/111/60 89/133/76 90/134/76 82/113/60
f 82/116/62 90/135/77 91/136/78 83/117/63
f 83/117/63 91/136/78 92/137/79 84/119/65
f 84/122/68 92/138/80 93/139/80 85/123/68
f 85/126/70 93/140/81 94/141/82 86/127/71
f 86/127/71 94/141/82 87/142/73 79/129/54
f 87/131/73 95/143/83 96/144/84 88/132/74
f 88/132/74 96/144/84 97/145/85 89/133/75
f 89/133/76 97/145/86 98/146/86 90/134/76
f 90/135/77 98/147/87 99/148/88 91/136/78
f 91/136/78 99/148/88 100/149/89 92/137/79
f 92/138/80 100/150/90 101/151/90 93/139/80
f 93/140/81 101/152/91 102/153/92 94/141/82
f 94/141/82 102/153/92 95/154/83 87/142/73
f 95/143/83 103/143/64 104/144/93 96/144/84
f 96/144/84 104/144/93 105/145/94 97/145/85
f 97/145/86 105/145/95 106/146/95 98/146/86
f 98/147/87 106/147/96 107/148/53 99/148/88
f 99/148/88 107/148/53 108/149/97 100/149/89
f 100/150/90 108/150/98 109/151/98 101/151/90
f 101/152/91 109/152/99 110/153/100 102/153/92
f 102/153/92 110/153/100 103/154/64 95/154/83
f 103/143/64 111/155/63 112/156/101 104/144/93
f 104/144/93 112/156/101 113/157/102 105/145/94
f 105/145/95 113/157/103 114/158/103 106/146/95
f 106/147/96 114/159/104 115/136/54 107/148/53
f 107/148/53 115/136/54 116/160/105 108/149/97
f 108/150/98 116/161/106 117/162/106 109/151/98
f 109/152/99 117/163/107 118/164/108 110/153/100
f 110/153/100 118/164/108 111/165/63 103/154/64
f 111/155/63 119/166/78 120/167/109 112/156/101
f 112/156/101 120/167/109 121/168/110 113/157/102
f 113/157/103 121/168/111 122/169/111 114/158/103
f 114/159/104 122/170/112 123/117/73 115/136/54
f 115/136/54 123/117/73 124/171/113 116/160/105
f 116/161/106 124/172/114 125/173/114 117/162/106
f 117/163/107 125/174/115 126/175/116 118/164/108
f 118/164/108 126/175/116 119/176/78 111/165/63
f 119/166/78 127/107/88 128/110/117 120/167/109
f 120/167/109 128/110/117 129/112/118 121/168/110
f 121/168/111 129/112/119 130/114/119 122/169/111
f 122/170/112 130/115/120 131/118/83 123/117/73
f 123/117/73 131/118/83 132/120/121 124/171/113
f 124/172/114 132/121/122 133/124/122 125/173/114
f 125/174/115 133/125/123 134/128/124 126/175/116
f 126/175/116 134/128/124 127/130/88 119/176/78
f 127/107/88 71/107/53 72/110/56 128/110/117
f 128/110/117 72/110/56 73/112/58 129/112/118
f 129/112/119 73/112/59 74/114/59 130/114/119
f 130/115/120 74/115/61 75/118/64 131/118/83
f 131/118/83 75/118/64 76/120/66 132/120/121
f 132/121/122 76/121/67 77/124/67 133/124/122
f 133/125/123 77/125/69 78/128/72 134/128/124
f 134/128/124 78/128/72 71/130/53 127/130/88
