# Blender 5.2.0 LTS
# www.blender.org
mtllib Flame.mtl
o Flame
v 0.970048 0.166949 -1.460643
v 0.901632 0.147595 -1.460643
v 0.970223 0.279746 -1.460643
v 1.038464 0.186303 -1.460643
v 0.972648 0.053812 -1.460643
v 0.913490 0.042059 -1.460643
v 0.896156 0.253865 -1.460643
v 1.044290 0.305628 -1.460643
v 1.031805 0.065566 -1.460643
v 0.906916 -0.257615 -1.460643
v 0.943682 -0.160086 -1.460643
v 0.937183 -0.256732 -1.460643
v 0.862523 -0.349021 -1.460643
v 0.878256 -0.255554 -1.460643
v 0.905091 -0.161249 -1.460643
v 0.982273 -0.158923 -1.460643
v 0.886825 -0.344068 -1.460643
v 0.844648 -0.342195 -1.460643
v 1.075826 0.586290 -1.460643
v 1.021378 0.490926 -1.460643
v 1.022200 0.561830 -1.460643
v 1.139982 0.675275 -1.460643
v 1.127152 0.607889 -1.460643
v 1.087152 0.518813 -1.460643
v 0.955604 0.463040 -1.460643
v 1.098519 0.653127 -1.460643
v 1.172243 0.685983 -1.460643
v 1.057709 0.418233 -1.460643
v 0.983792 0.388855 -1.460643
v 0.909875 0.359477 -1.460643
v 1.090963 0.077320 -1.460643
v 1.106880 0.205658 -1.460643
v 1.118357 0.331509 -1.460643
v 0.822089 0.227984 -1.460643
v 0.833217 0.128241 -1.460643
v 0.854333 0.030305 -1.460643
v 1.015884 -0.051278 -1.460643
v 0.967399 -0.056315 -1.460643
v 0.918914 -0.061353 -1.460643
v 0.833833 -0.426167 -1.460643
v 0.814315 -0.437365 -1.460643
v 0.807653 -0.425005 -1.460643
v 0.829987 -0.329480 -1.460643
v 0.850400 -0.252020 -1.460643
v 0.866499 -0.162411 -1.460643
v 1.020864 -0.157760 -1.460643
v 0.968253 -0.254376 -1.460643
v 0.914341 -0.333225 -1.460643
v 1.219881 0.758585 -1.460643
v 1.208992 0.761071 -1.460643
v 1.179699 0.740678 -1.460643
v 1.199904 0.690971 -1.460643
v 1.177327 0.628059 -1.460643
v 1.152926 0.546700 -1.460643
v 0.889830 0.435153 -1.460643
v 0.967424 0.535941 -1.460643
v 1.052455 0.625260 -1.460643
v 0.835958 0.330099 -1.460643
v 1.131627 0.447611 -1.460643
v 0.870429 -0.066391 -1.460643
v 1.064369 -0.046240 -1.460643
v 0.813119 -0.389054 -1.460643
v 0.866933 -0.391443 -1.460643
v 1.128641 0.695907 -1.460643
v 1.215731 0.734719 -1.460643
v 0.273176 1.686229 -1.519108
v 0.319044 1.551299 -1.519108
v 0.410882 1.694324 -1.519108
v 0.121887 1.667978 -1.519108
v 0.261121 1.747074 -1.519108
v 0.103848 1.747074 -1.519108
v 0.404698 1.747074 -1.519108
v 0.549627 1.747074 -1.519108
v 0.550457 1.676996 -1.519108
v 0.729776 1.747074 -1.519108
v 0.852623 1.747074 -1.519108
v 1.070695 1.526451 -1.519108
v 1.090414 1.612077 -1.519108
v 1.249913 1.425501 -1.519108
v 1.059046 1.436013 -1.519108
v 1.245186 1.331415 -1.519107
v 1.043531 1.345404 -1.519108
v 0.565110 1.566844 -1.519108
v 1.233689 1.241793 -1.519107
v 1.012215 1.259270 -1.519107
v 1.204316 1.158707 -1.519107
v 0.584655 1.488219 -1.519108
v 0.953164 1.182253 -1.519107
v 1.145957 1.084228 -1.519107
v 0.867588 1.107312 -1.519107
v 0.508244 1.463166 -1.519108
v 0.397732 1.427320 -1.519108
v 0.442885 1.571757 -1.519108
v 0.258735 1.389764 -1.519108
v 0.174442 1.523300 -1.519108
v 0.080537 1.360554 -1.519108
v 0.756698 1.027402 -1.519107
v 0.980285 0.894975 -1.519107
v 0.582978 0.967211 -1.519107
v 0.891973 0.747143 -1.519107
v 0.308915 0.951425 -1.519107
v 0.451293 0.778928 -1.519107
v 0.003292 0.947656 -1.519107
v -0.147575 1.349749 -1.519108
v -0.414037 1.350557 -1.519108
v -0.228769 1.489735 -1.519108
v -0.491139 1.490955 -1.519108
v -0.279921 1.640948 -1.519108
v -0.003852 1.499025 -1.519108
v -0.057605 1.649557 -1.519108
v -0.079845 1.747074 -1.519108
v -0.302360 1.747074 -1.519108
v -0.547434 1.747074 -1.519108
v -0.532869 1.638550 -1.519108
v -0.796217 1.747074 -1.519108
v -0.804258 1.638757 -1.519108
v -1.039352 1.747074 -1.519108
v -1.084867 1.640267 -1.519108
v -1.086579 1.508481 -1.519108
v -0.781789 1.498210 -1.519108
v -1.056296 1.367162 -1.519108
v -0.707281 1.356185 -1.519107
v -0.460890 0.882217 -1.519107
v -1.005824 1.223461 -1.519107
v -0.945746 1.086494 -1.519107
v -0.548680 0.826990 -1.519107
v -0.570477 0.757535 -1.519107
v -0.442548 0.691761 -1.519107
v -0.456950 0.647114 -1.519107
v -0.412990 0.684791 -1.519107
v -0.166839 0.766176 -1.519107
v -0.362308 0.600775 -1.519107
v -0.096981 0.602479 -1.519107
v -0.303739 0.470812 -1.519107
v -0.049335 0.434604 -1.519107
v -0.250518 0.326000 -1.519107
v -0.017706 0.264728 -1.519107
v -0.215882 0.197438 -1.519107
v -0.004942 0.119709 -1.519107
v -0.213068 0.116225 -1.519107
v -0.013892 0.026404 -1.519107
v -0.239030 0.062611 -1.519107
v -0.044819 -0.034607 -1.519107
v -0.290721 0.016844 -1.519107
v -0.097986 -0.082743 -1.519107
v -0.365096 -0.040824 -1.519107
v -0.173659 -0.137423 -1.519107
v -0.459108 -0.130146 -1.519107
v -0.272099 -0.218066 -1.519107
v -0.554018 -0.241543 -1.519107
v -0.374673 -0.317532 -1.519107
v -0.631089 -0.365439 -1.519107
v -0.462746 -0.428681 -1.519107
v -0.671581 -0.492258 -1.519107
v -0.517683 -0.544375 -1.519107
v -0.656755 -0.612422 -1.519107
v -0.520849 -0.657472 -1.519107
v -0.603045 -0.727926 -1.519107
v -0.487149 -0.768666 -1.519107
v -0.526882 -0.840763 -1.519107
v -0.431487 -0.878650 -1.519107
v -0.444701 -0.952928 -1.519107
v -0.368767 -0.988116 -1.519107
v -0.372933 -1.066414 -1.519107
v -0.313894 -1.097757 -1.519107
v -0.311727 -1.176168 -1.519107
v -0.267040 -1.202945 -1.519107
v -0.261235 -1.277135 -1.519107
v -0.228378 -1.299055 -1.519107
v -0.221605 -1.364260 -1.519107
v -0.198079 -1.381460 -1.519107
v -0.192987 -1.432491 -1.519107
v -0.176317 -1.445532 -1.519107
v -0.173086 -1.484216 -1.519107
v -0.161187 -1.494687 -1.519107
v -0.159608 -1.521824 -1.519107
v -0.150782 -1.532342 -1.519107
v -0.150258 -1.547704 -1.519107
v -0.142741 -1.564247 -1.519107
v -0.136869 -1.571963 -1.519107
v -0.142321 -1.540782 -1.519107
v -0.132450 -1.571364 -1.519107
v -0.134586 -1.545065 -1.519107
v -0.129295 -1.562962 -1.519107
v -0.127214 -1.547268 -1.519107
v -0.126216 -1.521945 -1.519107
v -0.137752 -1.513552 -1.519107
v -0.126309 -1.484654 -1.519107
v -0.142978 -1.471614 -1.519107
v -0.127503 -1.433058 -1.519107
v -0.151028 -1.415859 -1.519107
v -0.129806 -1.364818 -1.519107
v -0.162663 -1.342897 -1.519107
v -0.132978 -1.283278 -1.519107
v -0.177665 -1.256501 -1.519107
v -0.136778 -1.191785 -1.519107
v -0.195817 -1.160442 -1.519107
v -0.140966 -1.093681 -1.519107
v -0.216899 -1.058493 -1.519107
v -0.145300 -0.992311 -1.519107
v -0.240696 -0.954424 -1.519107
v -0.139462 -0.890888 -1.519107
v -0.255357 -0.850148 -1.519107
v -0.113131 -0.792622 -1.519107
v -0.249037 -0.747572 -1.519107
v -0.055990 -0.700724 -1.519107
v -0.209888 -0.648608 -1.519107
v 0.042282 -0.618407 -1.519107
v -0.126061 -0.555165 -1.519107
v 0.163362 -0.545497 -1.519107
v -0.015983 -0.469509 -1.519107
v 0.288926 -0.481825 -1.519107
v 0.101918 -0.393905 -1.519107
v 0.400652 -0.427218 -1.519107
v 0.209215 -0.330620 -1.519107
v 0.480217 -0.381506 -1.519107
v 0.287483 -0.281918 -1.519107
v 0.537814 -0.326262 -1.519107
v 0.343603 -0.229044 -1.519107
v 0.583636 -0.243062 -1.519107
v 0.384460 -0.153240 -1.519107
v 0.627877 -0.113478 -1.519107
v 0.416938 -0.035749 -1.519107
v 0.680731 0.080913 -1.519107
v 0.447919 0.142185 -1.519107
v 0.742297 0.309533 -1.519107
v 0.473683 0.353965 -1.519107
v 0.812677 0.541803 -1.519107
v 0.490512 0.572993 -1.519107
v 0.182556 0.595960 -1.519107
v 0.208622 0.396340 -1.519107
v 0.119812 0.785378 -1.519107
v 0.215106 0.203456 -1.519107
v 0.205998 0.041980 -1.519107
v 0.185284 -0.063418 -1.519107
v 0.149392 -0.131826 -1.519107
v 0.094748 -0.182331 -1.519107
v 0.017778 -0.234021 -1.519107
v -0.085091 -0.305985 -1.519107
v -0.195328 -0.393520 -1.519107
v -0.294404 -0.491923 -1.519107
v -0.363786 -0.596491 -1.519107
v -0.384943 -0.702522 -1.519107
v -0.371253 -0.809407 -1.519107
v -0.336091 -0.916537 -1.519107
v -0.292833 -1.023304 -1.519107
v -0.254855 -1.129099 -1.519107
v -0.222353 -1.229723 -1.519107
v -0.195520 -1.320976 -1.519107
v -0.174554 -1.398659 -1.519107
v -0.159648 -1.458573 -1.519107
v -0.149378 -1.504639 -1.519107
v -0.265104 0.923513 -1.519107
v -0.462166 0.576280 -1.519107
v -0.568286 0.673555 -1.519107
v -0.464166 0.504687 -1.519107
v -0.557901 0.595825 -1.519107
v -0.468917 0.457765 -1.519107
v -0.479554 0.430165 -1.519107
v -0.555115 0.545121 -1.519107
v -0.561994 0.514770 -1.519107
v -0.813707 0.807187 -1.519107
v -0.809312 0.768584 -1.519107
v -0.839105 0.869239 -1.519107
v -0.886645 0.965381 -1.519107
v -0.824777 0.742788 -1.519107
v -0.580602 0.498101 -1.519107
v -0.858960 0.719158 -1.519107
v -0.613003 0.488443 -1.519107
v -0.910720 0.687055 -1.519107
v -0.970608 0.650217 -1.519107
v -0.661262 0.479124 -1.519107
v -0.717353 0.469691 -1.519107
v -0.578109 0.409814 -1.519107
v -0.632935 0.409516 -1.519107
v -0.531017 0.411538 -1.519107
v -0.499210 0.416539 -1.519107
v -0.687941 0.408797 -1.519107
v -0.773249 0.459694 -1.519107
v -0.735577 0.405805 -1.519107
v -0.768290 0.398693 -1.519107
v -0.820924 0.448679 -1.519107
v -0.852352 0.436195 -1.519107
v -1.076967 0.577300 -1.519107
v -1.104538 0.548703 -1.519107
v -1.029173 0.612385 -1.519107
v -1.110821 0.517393 -1.519107
v -0.868394 0.416203 -1.519107
v -1.094745 0.474172 -1.519107
v -0.869913 0.382663 -1.519107
v -1.055243 0.409841 -1.519107
v -0.991246 0.315201 -1.519107
v -0.857768 0.329537 -1.519107
v -0.832823 0.250785 -1.519107
v -0.791943 0.302769 -1.519107
v -0.780015 0.229313 -1.519107
v -0.794968 0.352160 -1.519107
v -0.787586 0.382473 -1.519107
v -0.762997 0.144664 -1.519107
v -0.799071 0.156242 -1.519107
v -0.744702 0.061692 -1.519107
v -0.760505 0.055740 -1.519107
v -0.728943 -0.006734 -1.519107
v -0.719533 -0.047742 -1.519107
v -0.776415 0.012688 -1.519107
v -0.839420 0.100297 -1.519107
v -0.915168 0.206577 -1.519107
v 1.068113 1.001827 -1.519107
v 1.258979 1.521981 -1.519108
v 1.283492 1.618784 -1.519108
v 1.130137 1.688244 -1.519108
v 1.302383 1.702531 -1.519108
v 1.157279 1.747074 -1.519108
v 1.298156 1.747074 -1.519108
v 1.005549 1.747074 -1.519108
vn -0.0000 -0.0000 1.0000
vt 0.016288 0.994809
s 1
usemtl Atlas_Diffuse
f 1/1/1 2/1/1 6/1/1 5/1/1
f 2/1/1 35/1/1 36/1/1 6/1/1
f 5/1/1 6/1/1 39/1/1 38/1/1
f 6/1/1 36/1/1 60/1/1 39/1/1
f 1/1/1 3/1/1 7/1/1 2/1/1
f 3/1/1 29/1/1 30/1/1 7/1/1
f 2/1/1 7/1/1 34/1/1 35/1/1
f 7/1/1 30/1/1 58/1/1 34/1/1
f 1/1/1 4/1/1 8/1/1 3/1/1
f 4/1/1 32/1/1 33/1/1 8/1/1
f 3/1/1 8/1/1 28/1/1 29/1/1
f 8/1/1 33/1/1 59/1/1 28/1/1
f 1/1/1 5/1/1 9/1/1 4/1/1
f 5/1/1 38/1/1 37/1/1 9/1/1
f 4/1/1 9/1/1 31/1/1 32/1/1
f 9/1/1 37/1/1 61/1/1 31/1/1
f 10/1/1 11/1/1 15/1/1 14/1/1
f 11/1/1 38/1/1 39/1/1 15/1/1
f 14/1/1 15/1/1 45/1/1 44/1/1
f 15/1/1 39/1/1 60/1/1 45/1/1
f 10/1/1 12/1/1 16/1/1 11/1/1
f 12/1/1 47/1/1 46/1/1 16/1/1
f 11/1/1 16/1/1 37/1/1 38/1/1
f 16/1/1 46/1/1 61/1/1 37/1/1
f 10/1/1 13/1/1 17/1/1 12/1/1
f 13/1/1 41/1/1 40/1/1 17/1/1
f 12/1/1 17/1/1 48/1/1 47/1/1
f 17/1/1 40/1/1 63/1/1 48/1/1
f 10/1/1 14/1/1 18/1/1 13/1/1
f 14/1/1 44/1/1 43/1/1 18/1/1
f 13/1/1 18/1/1 42/1/1 41/1/1
f 18/1/1 43/1/1 62/1/1 42/1/1
f 19/1/1 20/1/1 24/1/1 23/1/1
f 20/1/1 29/1/1 28/1/1 24/1/1
f 23/1/1 24/1/1 54/1/1 53/1/1
f 24/1/1 28/1/1 59/1/1 54/1/1
f 19/1/1 21/1/1 25/1/1 20/1/1
f 21/1/1 56/1/1 55/1/1 25/1/1
f 20/1/1 25/1/1 30/1/1 29/1/1
f 25/1/1 55/1/1 58/1/1 30/1/1
f 19/1/1 22/1/1 26/1/1 21/1/1
f 22/1/1 50/1/1 51/1/1 26/1/1
f 21/1/1 26/1/1 57/1/1 56/1/1
f 26/1/1 51/1/1 64/1/1 57/1/1
f 19/1/1 23/1/1 27/1/1 22/1/1
f 23/1/1 53/1/1 52/1/1 27/1/1
f 22/1/1 27/1/1 49/1/1 50/1/1
f 27/1/1 52/1/1 65/1/1 49/1/1
f 66/1/1 69/1/1 95/1/1 67/1/1
f 66/1/1 67/1/1 93/1/1 68/1/1
f 66/1/1 68/1/1 72/1/1 70/1/1
f 66/1/1 70/1/1 71/1/1 69/1/1
f 68/1/1 74/1/1 73/1/1 72/1/1
f 80/1/1 77/1/1 75/1/1 73/1/1 74/1/1
f 77/1/1 78/1/1 76/1/1 75/1/1
f 77/1/1 79/1/1 309/1/1 78/1/1
f 80/1/1 81/1/1 79/1/1 77/1/1
f 80/1/1 82/1/1 84/1/1 81/1/1
f 82/1/1 80/1/1 74/1/1 83/1/1
f 85/1/1 82/1/1 83/1/1 87/1/1
f 82/1/1 85/1/1 86/1/1 84/1/1
f 88/1/1 89/1/1 86/1/1 85/1/1
f 88/1/1 85/1/1 87/1/1 91/1/1
f 90/1/1 308/1/1 89/1/1 88/1/1
f 90/1/1 88/1/1 91/1/1 92/1/1
f 67/1/1 92/1/1 91/1/1 93/1/1
f 93/1/1 91/1/1 87/1/1 83/1/1
f 68/1/1 93/1/1 83/1/1 74/1/1
f 67/1/1 95/1/1 94/1/1 92/1/1
f 97/1/1 90/1/1 92/1/1 94/1/1
f 95/1/1 109/1/1 96/1/1 94/1/1
f 99/1/1 97/1/1 94/1/1 96/1/1
f 90/1/1 97/1/1 98/1/1 308/1/1
f 97/1/1 99/1/1 100/1/1 98/1/1
f 101/1/1 102/1/1 100/1/1 99/1/1
f 101/1/1 99/1/1 96/1/1 104/1/1
f 103/1/1 232/1/1 102/1/1 101/1/1
f 103/1/1 101/1/1 104/1/1 105/1/1
f 107/1/1 105/1/1 104/1/1 106/1/1
f 106/1/1 104/1/1 96/1/1 109/1/1
f 114/1/1 107/1/1 106/1/1 108/1/1
f 108/1/1 106/1/1 109/1/1 110/1/1
f 69/1/1 110/1/1 109/1/1 95/1/1
f 69/1/1 71/1/1 111/1/1 110/1/1
f 108/1/1 110/1/1 111/1/1 112/1/1
f 114/1/1 108/1/1 112/1/1 113/1/1
f 114/1/1 113/1/1 115/1/1 116/1/1
f 116/1/1 115/1/1 117/1/1 118/1/1
f 116/1/1 118/1/1 119/1/1 120/1/1
f 120/1/1 119/1/1 121/1/1 122/1/1
f 123/1/1 253/1/1 122/1/1 121/1/1
f 123/1/1 121/1/1 124/1/1 126/1/1
f 124/1/1 125/1/1 127/1/1 126/1/1
f 127/1/1 129/1/1 128/1/1 126/1/1
f 126/1/1 128/1/1 130/1/1 123/1/1
f 253/1/1 123/1/1 130/1/1 131/1/1
f 133/1/1 131/1/1 130/1/1 132/1/1
f 135/1/1 133/1/1 132/1/1 134/1/1
f 135/1/1 134/1/1 136/1/1 137/1/1
f 137/1/1 136/1/1 138/1/1 139/1/1
f 141/1/1 139/1/1 138/1/1 140/1/1
f 143/1/1 141/1/1 140/1/1 142/1/1
f 143/1/1 142/1/1 144/1/1 145/1/1
f 145/1/1 144/1/1 146/1/1 147/1/1
f 149/1/1 147/1/1 146/1/1 148/1/1
f 151/1/1 149/1/1 148/1/1 150/1/1
f 151/1/1 150/1/1 152/1/1 153/1/1
f 153/1/1 152/1/1 154/1/1 155/1/1
f 157/1/1 155/1/1 154/1/1 156/1/1
f 159/1/1 157/1/1 156/1/1 158/1/1
f 159/1/1 158/1/1 160/1/1 161/1/1
f 161/1/1 160/1/1 162/1/1 163/1/1
f 165/1/1 163/1/1 162/1/1 164/1/1
f 167/1/1 165/1/1 164/1/1 166/1/1
f 167/1/1 166/1/1 168/1/1 169/1/1
f 169/1/1 168/1/1 170/1/1 171/1/1
f 173/1/1 171/1/1 170/1/1 172/1/1
f 175/1/1 173/1/1 172/1/1 174/1/1
f 175/1/1 174/1/1 176/1/1 177/1/1
f 177/1/1 176/1/1 178/1/1 179/1/1
f 181/1/1 177/1/1 179/1/1 180/1/1
f 181/1/1 180/1/1 182/1/1 183/1/1
f 183/1/1 182/1/1 184/1/1 185/1/1
f 187/1/1 183/1/1 185/1/1 186/1/1
f 187/1/1 186/1/1 188/1/1 189/1/1
f 189/1/1 188/1/1 190/1/1 191/1/1
f 193/1/1 191/1/1 190/1/1 192/1/1
f 195/1/1 193/1/1 192/1/1 194/1/1
f 195/1/1 194/1/1 196/1/1 197/1/1
f 197/1/1 196/1/1 198/1/1 199/1/1
f 201/1/1 199/1/1 198/1/1 200/1/1
f 203/1/1 201/1/1 200/1/1 202/1/1
f 203/1/1 202/1/1 204/1/1 205/1/1
f 205/1/1 204/1/1 206/1/1 207/1/1
f 209/1/1 207/1/1 206/1/1 208/1/1
f 211/1/1 209/1/1 208/1/1 210/1/1
f 211/1/1 210/1/1 212/1/1 213/1/1
f 213/1/1 212/1/1 214/1/1 215/1/1
f 217/1/1 215/1/1 214/1/1 216/1/1
f 219/1/1 217/1/1 216/1/1 218/1/1
f 219/1/1 218/1/1 220/1/1 221/1/1
f 221/1/1 220/1/1 222/1/1 223/1/1
f 225/1/1 223/1/1 222/1/1 224/1/1
f 227/1/1 225/1/1 224/1/1 226/1/1
f 227/1/1 226/1/1 228/1/1 229/1/1
f 229/1/1 228/1/1 100/1/1 102/1/1
f 231/1/1 227/1/1 229/1/1 230/1/1
f 230/1/1 229/1/1 102/1/1 232/1/1
f 231/1/1 230/1/1 133/1/1 135/1/1
f 230/1/1 232/1/1 131/1/1 133/1/1
f 103/1/1 253/1/1 131/1/1 232/1/1
f 231/1/1 135/1/1 137/1/1 233/1/1
f 231/1/1 233/1/1 225/1/1 227/1/1
f 233/1/1 234/1/1 223/1/1 225/1/1
f 233/1/1 137/1/1 139/1/1 234/1/1
f 235/1/1 221/1/1 223/1/1 234/1/1
f 235/1/1 234/1/1 139/1/1 141/1/1
f 236/1/1 219/1/1 221/1/1 235/1/1
f 236/1/1 235/1/1 141/1/1 143/1/1
f 236/1/1 237/1/1 217/1/1 219/1/1
f 236/1/1 143/1/1 145/1/1 237/1/1
f 237/1/1 238/1/1 215/1/1 217/1/1
f 237/1/1 145/1/1 147/1/1 238/1/1
f 239/1/1 213/1/1 215/1/1 238/1/1
f 239/1/1 238/1/1 147/1/1 149/1/1
f 240/1/1 211/1/1 213/1/1 239/1/1
f 240/1/1 239/1/1 149/1/1 151/1/1
f 240/1/1 151/1/1 153/1/1 241/1/1
f 240/1/1 241/1/1 209/1/1 211/1/1
f 241/1/1 242/1/1 207/1/1 209/1/1
f 241/1/1 153/1/1 155/1/1 242/1/1
f 243/1/1 205/1/1 207/1/1 242/1/1
f 243/1/1 242/1/1 155/1/1 157/1/1
f 244/1/1 203/1/1 205/1/1 243/1/1
f 244/1/1 243/1/1 157/1/1 159/1/1
f 244/1/1 159/1/1 161/1/1 245/1/1
f 244/1/1 245/1/1 201/1/1 203/1/1
f 245/1/1 246/1/1 199/1/1 201/1/1
f 245/1/1 161/1/1 163/1/1 246/1/1
f 247/1/1 197/1/1 199/1/1 246/1/1
f 247/1/1 246/1/1 163/1/1 165/1/1
f 248/1/1 195/1/1 197/1/1 247/1/1
f 248/1/1 247/1/1 165/1/1 167/1/1
f 248/1/1 167/1/1 169/1/1 249/1/1
f 248/1/1 249/1/1 193/1/1 195/1/1
f 249/1/1 250/1/1 191/1/1 193/1/1
f 249/1/1 169/1/1 171/1/1 250/1/1
f 251/1/1 189/1/1 191/1/1 250/1/1
f 251/1/1 250/1/1 171/1/1 173/1/1
f 252/1/1 187/1/1 189/1/1 251/1/1
f 252/1/1 251/1/1 173/1/1 175/1/1
f 252/1/1 175/1/1 177/1/1 181/1/1
f 252/1/1 181/1/1 183/1/1 187/1/1
f 253/1/1 103/1/1 105/1/1 122/1/1
f 127/1/1 255/1/1 254/1/1 129/1/1
f 255/1/1 257/1/1 256/1/1 254/1/1
f 260/1/1 258/1/1 256/1/1 257/1/1
f 261/1/1 259/1/1 258/1/1 260/1/1
f 261/1/1 260/1/1 262/1/1 263/1/1
f 260/1/1 257/1/1 264/1/1 262/1/1
f 257/1/1 255/1/1 265/1/1 264/1/1
f 255/1/1 127/1/1 125/1/1 265/1/1
f 267/1/1 261/1/1 263/1/1 266/1/1
f 268/1/1 269/1/1 267/1/1 266/1/1
f 268/1/1 270/1/1 272/1/1 269/1/1
f 270/1/1 271/1/1 273/1/1 272/1/1
f 273/1/1 275/1/1 274/1/1 272/1/1
f 272/1/1 274/1/1 276/1/1 269/1/1
f 267/1/1 269/1/1 276/1/1 277/1/1
f 261/1/1 267/1/1 277/1/1 259/1/1
f 273/1/1 279/1/1 278/1/1 275/1/1
f 279/1/1 282/1/1 280/1/1 278/1/1
f 283/1/1 281/1/1 280/1/1 282/1/1
f 283/1/1 282/1/1 284/1/1 285/1/1
f 282/1/1 279/1/1 286/1/1 284/1/1
f 279/1/1 273/1/1 271/1/1 286/1/1
f 288/1/1 283/1/1 285/1/1 287/1/1
f 290/1/1 288/1/1 287/1/1 289/1/1
f 291/1/1 293/1/1 290/1/1 289/1/1
f 291/1/1 292/1/1 294/1/1 293/1/1
f 294/1/1 296/1/1 295/1/1 293/1/1
f 290/1/1 293/1/1 295/1/1 297/1/1
f 288/1/1 290/1/1 297/1/1 298/1/1
f 288/1/1 298/1/1 281/1/1 283/1/1
f 300/1/1 299/1/1 296/1/1 294/1/1
f 300/1/1 302/1/1 301/1/1 299/1/1
f 302/1/1 304/1/1 303/1/1 301/1/1
f 304/1/1 302/1/1 306/1/1 305/1/1
f 302/1/1 300/1/1 307/1/1 306/1/1
f 292/1/1 307/1/1 300/1/1 294/1/1
f 107/1/1 120/1/1 122/1/1 105/1/1
f 114/1/1 116/1/1 120/1/1 107/1/1
f 311/1/1 78/1/1 309/1/1 310/1/1
f 313/1/1 311/1/1 310/1/1 312/1/1
f 313/1/1 312/1/1 314/1/1
f 315/1/1 311/1/1 313/1/1
f 76/1/1 78/1/1 311/1/1 315/1/1
