# Blender 5.2.0 LTS
# www.blender.org
mtllib small_rock.mtl
o Resource_Rock_3
v -0.005434 0.012162 -0.206415
v -0.006601 0.012162 -0.226055
v -0.020707 0.012162 -0.188516
v 0.021692 0.012162 -0.194217
v 0.038738 0.012162 -0.168379
v -0.001411 0.012162 -0.168070
v 0.033659 0.012162 -0.226931
v 0.030430 0.012162 -0.207888
v 0.052090 0.012162 -0.189625
v 0.062980 0.012162 -0.214366
v 0.023370 0.012162 -0.230612
v 0.003838 0.012162 -0.237327
v 0.023439 0.080734 -0.226578
v 0.029136 0.083685 -0.207073
v 0.045167 0.068096 -0.190420
v -0.000457 0.096171 -0.224127
v 0.000645 0.101980 -0.207519
v -0.014786 0.087755 -0.192533
v 0.022136 0.091057 -0.195930
v 0.031559 0.076097 -0.222975
v 0.033807 0.074133 -0.172974
v -0.000145 0.077802 -0.174235
v 0.007775 0.087603 -0.233142
v 0.054366 0.060754 -0.210896
v 0.115599 0.003933 -0.025003
v 0.148115 0.003933 -0.035746
v 0.078664 0.003933 -0.042695
v 0.107204 0.003933 0.026079
v 0.071360 0.003933 0.066302
v 0.052894 0.003933 -0.001097
v 0.167583 0.003933 0.031587
v 0.134107 0.003933 0.034668
v 0.113067 0.003933 0.079265
v 0.159552 0.003933 0.086525
v 0.169177 0.003933 0.012633
v 0.171742 0.003933 -0.023223
v 0.162422 0.123284 0.014553
v 0.132157 0.128421 0.032855
v 0.111310 0.101288 0.067265
v 0.147617 0.150153 -0.024549
v 0.120173 0.160265 -0.015271
v 0.088067 0.135506 -0.034530
v 0.110284 0.141253 0.026060
v 0.159990 0.115214 0.029823
v 0.076884 0.111797 0.055954
v 0.063831 0.118182 -0.001723
v 0.166462 0.135241 -0.014730
v 0.149866 0.088509 0.073587
v -0.150981 0.004271 0.130082
v -0.173639 0.004271 0.136490
v -0.126137 0.004271 0.143340
v -0.143686 0.004271 0.095242
v -0.117860 0.004271 0.068683
v -0.107190 0.004271 0.115535
v -0.184999 0.004271 0.089653
v -0.161911 0.004271 0.088538
v -0.146123 0.004271 0.058530
v -0.177840 0.004271 0.052153
v -0.186661 0.004271 0.102626
v -0.189495 0.004271 0.127180
v -0.181963 0.085437 0.101509
v -0.160625 0.088930 0.089841
v -0.145275 0.070478 0.066826
v -0.172963 0.103709 0.128813
v -0.153832 0.110586 0.123260
v -0.132352 0.093748 0.137450
v -0.145803 0.097656 0.095163
v -0.179836 0.079949 0.091092
v -0.121965 0.077625 0.075626
v -0.114722 0.081967 0.115638
v -0.185614 0.093568 0.121504
v -0.171573 0.061788 0.061330
v -0.031590 0.040408 0.133003
v -0.009754 0.063715 0.093863
v -0.060352 0.055207 0.083761
v -0.063312 0.052023 0.113105
v -0.019871 0.053727 0.113909
v -0.042782 0.066714 0.104257
v -0.043694 0.063847 0.072084
v -0.031560 0.076196 0.086277
v -0.017111 0.071152 0.086235
v -0.048823 0.046781 0.123907
v -0.033514 0.060314 0.110934
v -0.016302 0.057752 0.107072
v -0.005912 -0.001774 0.090683
v -0.012804 -0.001774 0.107234
v -0.029058 -0.001774 0.140656
v -0.049893 -0.001774 0.129860
v -0.032879 -0.001774 0.112101
v -0.016560 -0.001774 0.115946
v -0.065623 -0.001774 0.082324
v -0.067564 -0.001774 0.117124
v -0.044242 -0.001774 0.103778
v -0.046848 -0.001774 0.066733
v -0.015103 -0.001774 0.081018
v -0.032182 -0.001774 0.080949
v 0.159227 0.041120 0.215345
v 0.197218 0.064970 0.189656
v 0.155652 0.056264 0.157101
v 0.139419 0.053005 0.182544
v 0.178735 0.054750 0.203304
v 0.162254 0.068038 0.183925
v 0.176253 0.065105 0.154112
v 0.180795 0.077741 0.172672
v 0.194014 0.072581 0.179295
v 0.147677 0.047642 0.199091
v 0.167642 0.061490 0.194298
v 0.185147 0.058868 0.198704
v 0.202195 -0.002044 0.188521
v 0.188269 -0.002044 0.200465
v 0.158012 -0.002044 0.223504
v 0.143955 -0.002044 0.204037
v 0.167685 -0.002044 0.195656
v 0.180821 -0.002044 0.206692
v 0.151499 -0.002044 0.153359
v 0.133683 -0.002044 0.184255
v 0.161141 -0.002044 0.182814
v 0.175839 -0.002044 0.147770
v 0.198254 -0.002044 0.175455
v 0.182683 -0.002044 0.167519
v -0.175636 0.035108 -0.009044
v -0.171827 0.052210 0.023620
v -0.137382 0.045967 0.007910
v -0.148217 0.043630 -0.010823
v -0.174412 0.044881 0.007349
v -0.156635 0.054410 0.003256
v -0.142281 0.052307 0.022010
v -0.155594 0.061368 0.018774
v -0.164174 0.057667 0.025001
v -0.161476 0.039785 -0.011030
v -0.165017 0.049714 0.003262
v -0.173601 0.047834 0.012949
v -0.172748 0.004157 0.027162
v -0.175752 0.004157 0.014355
v -0.180428 0.004157 -0.012511
v -0.163396 0.004157 -0.015031
v -0.165896 0.004157 0.002840
v -0.177257 0.004157 0.007558
v -0.133628 0.004157 0.006502
v -0.147413 0.004157 -0.015039
v -0.155561 0.004157 0.002914
v -0.138107 0.004157 0.023840
v -0.163130 0.004157 0.028968
v -0.152937 0.004157 0.021677
v -0.049215 -0.001783 0.060901
v -0.069419 0.135639 0.036255
v 0.024310 -0.001843 0.026671
v -0.011543 0.175241 0.006127
v -0.053137 -0.002282 -0.085597
v -0.052451 0.160726 -0.065245
v 0.017784 -0.002060 -0.025880
v -0.078931 -0.002099 -0.019034
v -0.084412 0.148680 -0.026629
v -0.026336 -0.001926 0.018679
v -0.040417 0.157244 0.022896
v -0.022534 -0.002290 -0.085803
v -0.056782 0.170346 -0.015376
v -0.033094 -0.002099 -0.021670
v -0.060837 0.090341 0.049847
v 0.001248 0.142390 0.010039
v -0.063793 0.087967 -0.077929
v -0.089776 0.118416 -0.034609
v 0.011028 0.133453 -0.027115
v -0.040842 0.121103 -0.074960
v -0.037285 0.125430 0.031903
v 0.023793 -0.002087 -0.038720
v 0.017608 -0.002238 -0.082250
v -0.007065 0.146646 -0.069147
v 0.008505 0.135271 -0.050139
v -0.003492 0.170117 -0.042837
v -0.024948 0.175990 -0.062837
v -0.028743 0.187400 -0.027991
v -0.003975 0.174809 -0.031599
v -0.012823 0.184246 -0.012409
v -0.088020 0.102830 0.019890
v -0.098378 0.114001 -0.039980
v -0.088042 -0.002238 -0.065041
v -0.120471 -0.002029 -0.030369
v -0.116005 0.051711 -0.039322
v -0.091051 0.042614 -0.071205
v 0.034428 0.040124 0.019881
v -0.060135 0.050841 -0.083780
v 0.031464 0.069545 -0.025344
v -0.033922 0.071116 -0.081889
v -0.025815 0.051923 0.044397
v -0.054779 0.054224 0.057881
v 0.005789 0.104515 -0.075880
v 0.030747 0.067765 -0.045698
v -0.096069 0.081242 0.026710
v -0.057339 0.072600 0.054298
v 0.015289 0.116201 -0.050007
v -0.111557 0.089437 -0.036243
v 0.018853 0.093928 0.013401
v -0.062988 0.067909 -0.081334
v 0.022430 0.099703 -0.027346
v -0.037613 0.097843 -0.078248
v -0.031645 0.072991 0.042513
v -0.000743 0.126740 -0.072525
v -0.090263 0.069784 -0.069461
v -0.104333 -0.001909 0.014029
v -0.083787 -0.001864 0.033708
v -0.087446 0.053047 0.035446
v -0.106300 0.052522 0.017169
v -0.079295 0.142319 0.004560
v -0.052744 0.163034 0.003999
v -0.088551 0.117918 -0.009215
v -0.080125 0.115215 -0.000304
v -0.108666 0.066236 0.012108
v -0.030554 0.164072 0.017358
v -0.003244 -0.001889 0.025506
v -0.006727 -0.002101 -0.023133
v -0.021761 0.138297 0.022372
v -0.009252 0.082960 0.033087
v -0.007465 0.043958 0.038743
v -0.093026 0.091462 0.023066
v -0.058339 0.082010 0.052183
v 0.011721 0.125924 -0.051342
v -0.106307 0.101513 -0.038543
v 0.009851 0.119222 0.011529
v -0.063119 0.080874 -0.079674
v 0.015820 0.119636 -0.027021
v -0.039278 0.109889 -0.076588
v -0.034564 0.100460 0.037161
v -0.003930 0.136748 -0.070864
v -0.100311 0.093532 0.000556
v -0.016651 0.120540 0.026014
v -0.085536 0.091919 -0.069748
vn 0.8746 0.1159 0.4707
vn 0.8833 0.1180 0.4537
vn 0.9269 0.1546 -0.3419
vn 0.9112 0.1536 -0.3822
vn -0.7375 0.0326 -0.6745
vn -0.9965 0.0809 0.0188
vn -0.9588 0.0662 -0.2761
vn -0.0000 -1.0000 -0.0000
vn 0.8454 0.1089 0.5229
vn 0.4156 0.0816 -0.9059
vn 0.4040 0.0749 -0.9117
vn 0.6165 0.7819 -0.0932
vn 0.6891 0.7168 0.1064
vn 0.6796 0.7335 0.0111
vn 0.6149 0.7786 -0.1249
vn -0.0183 0.8091 0.5873
vn 0.0171 0.8140 0.5806
vn 0.0184 0.8142 0.5803
vn 0.0673 0.8191 0.5696
vn -0.4691 0.0925 0.8783
vn -0.4030 0.0925 0.9105
vn -0.0087 0.0838 0.9964
vn 0.6618 0.7438 -0.0938
vn 0.5901 0.7840 -0.1928
vn 0.5229 0.8076 -0.2725
vn 0.5171 0.8091 -0.2791
vn 0.5114 0.8105 -0.2855
vn -0.3839 0.0726 -0.9205
vn -0.2281 0.0694 -0.9712
vn -0.9343 0.0772 -0.3481
vn -0.9733 0.0761 -0.2167
vn -0.9962 0.0698 0.0512
vn 0.3676 0.0499 -0.9286
vn 0.3702 0.0522 -0.9275
vn 0.4625 0.0326 -0.8860
vn -0.2741 0.0809 -0.9583
vn 0.0206 0.0662 -0.9976
vn -0.2303 0.1159 0.9662
vn -0.2116 0.1180 0.9702
vn 0.5685 0.1546 0.8080
vn 0.6034 0.1536 0.7825
vn 0.9822 0.0816 0.1690
vn 0.9849 0.0749 0.1563
vn -0.9835 0.0925 -0.1557
vn -0.9693 0.0925 -0.2279
vn -0.5567 0.8140 0.1657
vn -0.5332 0.8191 0.2114
vn -0.5561 0.8142 0.1668
vn 0.2484 0.7819 0.5718
vn 0.0742 0.7168 0.6933
vn 0.1638 0.7335 0.6597
vn 0.2786 0.7786 0.5622
vn 0.3379 0.7840 0.5208
vn 0.4073 0.8105 0.4209
vn 0.4025 0.8091 0.4281
vn -0.2883 0.1089 0.9513
vn 0.3977 0.8076 0.4354
vn 0.9914 0.0522 0.1196
vn 0.9919 0.0499 0.1168
vn -0.0405 0.0761 -0.9963
vn 0.0966 0.0772 -0.9923
vn -0.3053 0.0698 -0.9497
vn 0.2606 0.7438 0.6155
vn 0.7911 0.0726 -0.6074
vn 0.8800 0.0694 -0.4699
vn -0.9653 0.0838 0.2475
vn -0.5723 0.8091 0.1331
vn -0.9770 0.0758 -0.1991
vn -0.9739 0.0825 -0.2116
vn -0.9853 0.0528 -0.1626
vn -0.9859 0.0505 -0.1598
vn 0.9585 0.0935 0.2692
vn 0.9757 0.0935 0.1982
vn 0.9750 0.0847 -0.2053
vn -0.5684 0.1553 -0.8080
vn -0.5327 0.1563 -0.8318
vn -0.2212 0.7850 -0.5786
vn -0.0437 0.7206 -0.6920
vn -0.1339 0.7371 -0.6623
vn -0.2522 0.7820 -0.5700
vn -0.0043 0.0770 0.9970
vn -0.1396 0.0781 0.9871
vn 0.2637 0.0706 0.9620
vn -0.0620 0.0670 0.9958
vn 0.2324 0.0818 0.9692
vn 0.2719 0.1172 -0.9552
vn 0.2535 0.1193 -0.9599
vn 0.3294 0.1101 -0.9378
vn -0.8995 0.0702 0.4313
vn -0.8177 0.0734 0.5709
vn -0.2322 0.7475 -0.6224
vn -0.3130 0.7874 -0.5311
vn -0.5006 0.0330 0.8651
vn 0.5593 0.8170 -0.1402
vn 0.5379 0.8221 -0.1866
vn 0.5587 0.8172 -0.1416
vn -0.3858 0.8136 -0.4351
vn -0.3808 0.8122 -0.4420
vn -0.3756 0.8107 -0.4490
vn 0.5734 0.8122 -0.1073
vn 0.0856 0.7786 0.6216
vn -0.0541 0.7335 0.6776
vn 0.0517 0.7438 0.6664
vn 0.1550 0.7840 0.6011
vn -0.5805 0.8140 -0.0197
vn -0.5728 0.8191 0.0311
vn -0.5803 0.8142 -0.0184
vn 0.2388 0.8076 0.5391
vn 0.0540 0.7819 0.6211
vn 0.2457 0.8091 0.5338
vn -0.5850 0.8091 -0.0555
vn -0.1498 0.7168 0.6810
vn 0.2525 0.8105 0.5285
vn -0.8468 0.0925 -0.5239
vn -0.8831 0.0925 -0.4599
vn -0.9939 0.0838 -0.0718
vn 0.9430 0.0726 -0.3248
vn 0.9837 0.0694 -0.1661
vn 0.4067 0.0772 -0.9103
vn 0.2780 0.0761 -0.9576
vn 0.8842 0.0749 0.4610
vn 0.8777 0.0816 0.4722
vn 0.9021 0.0522 0.4283
vn 0.9035 0.0499 0.4257
vn 0.0120 0.0698 -0.9975
vn 0.3237 0.1536 0.9336
vn 0.2825 0.1546 0.9467
vn 0.7199 0.0326 -0.6933
vn 0.0444 0.0809 -0.9957
vn 0.3364 0.0662 -0.9394
vn -0.5252 0.1159 0.8431
vn -0.5087 0.1180 0.8528
vn -0.5755 0.1089 0.8105
vn -0.2036 0.7786 0.5935
vn -0.3536 0.7335 0.5805
vn -0.2541 0.7438 0.6182
vn -0.1324 0.7840 0.6065
vn -0.5094 0.8140 -0.2791
vn -0.5254 0.8191 -0.2303
vn -0.5098 0.8142 -0.2778
vn -0.0297 0.8076 0.5889
vn -0.2316 0.7819 0.5788
vn -0.0211 0.8091 0.5873
vn -0.4973 0.8091 -0.3131
vn -0.4406 0.7168 0.5405
vn -0.0126 0.8105 0.5856
vn -0.5200 0.0925 -0.8492
vn -0.5812 0.0925 -0.8085
vn -0.8550 0.0838 -0.5119
vn 0.9882 0.0726 0.1349
vn 0.9530 0.0694 0.2948
vn 0.7732 0.0772 -0.6295
vn 0.6796 0.0761 -0.7297
vn 0.5817 0.0749 0.8099
vn 0.5709 0.0816 0.8170
vn 0.6125 0.0522 0.7888
vn 0.6148 0.0499 0.7871
vn 0.4601 0.0698 -0.8851
vn -0.1316 0.1536 0.9793
vn -0.1743 0.1546 0.9725
vn 0.9551 0.0326 -0.2946
vn 0.4882 0.0809 -0.8690
vn 0.7235 0.0662 -0.6871
vn -0.8487 0.1159 0.5160
vn -0.8384 0.1180 0.5322
vn -0.8789 0.1089 0.4644
vn -0.4331 0.7786 -0.4540
vn -0.3526 0.7335 -0.5812
vn -0.4318 0.7438 -0.5102
vn -0.4774 0.7840 -0.3968
vn 0.4823 0.8140 -0.3237
vn 0.4463 0.8191 -0.3603
vn 0.4814 0.8142 -0.3246
vn -0.5091 0.8076 -0.2975
vn -0.4072 0.7819 -0.4721
vn -0.5116 0.8091 -0.2891
vn 0.5069 0.8091 -0.2972
vn -0.2769 0.7168 -0.6399
vn -0.5140 0.8105 -0.2808
vn 0.9932 0.0925 -0.0706
vn 0.9853 0.0925 -0.1437
vn 0.8480 0.0838 -0.5233
vn -0.5748 0.0726 0.8151
vn -0.7005 0.0694 0.7102
vn 0.2028 0.0772 0.9762
vn 0.3348 0.0761 0.9392
vn -0.9868 0.0749 0.1435
vn -0.9881 0.0816 0.1306
vn -0.9822 0.0522 0.1805
vn -0.9818 0.0499 0.1834
vn 0.5738 0.0698 0.8160
vn -0.8087 0.1536 -0.5678
vn -0.7830 0.1546 -0.6025
vn -0.1782 0.0326 0.9835
vn 0.5466 0.0809 0.8335
vn 0.2769 0.0662 0.9586
vn -0.0673 0.1159 -0.9910
vn -0.0864 0.1180 -0.9892
vn -0.0075 0.1089 -0.9940
vn 0.3699 0.2706 0.8888
vn 0.4226 0.2670 0.8661
vn 0.3912 0.2776 0.8774
vn 0.3609 0.2811 0.8892
vn -0.0564 0.1865 -0.9808
vn -0.1061 0.1727 -0.9792
vn -0.0424 0.2150 -0.9757
vn -0.9620 -0.0076 0.2729
vn -0.9476 -0.0637 0.3131
vn -0.9628 -0.0041 0.2703
vn 0.0004 -1.0000 0.0035
vn 0.0001 -1.0000 0.0034
vn -0.0009 -1.0000 0.0032
vn 0.0006 -1.0000 0.0029
vn -0.4416 0.8061 0.3938
vn -0.5595 0.7485 0.3561
vn -0.4878 0.7735 0.4047
vn -0.3917 0.8196 0.4182
vn -0.5312 0.8136 -0.2364
vn -0.5513 0.8090 -0.2039
vn -0.5362 0.8126 -0.2285
vn 0.0004 -1.0000 0.0041
vn -0.0016 -1.0000 0.0041
vn -0.7652 0.2436 -0.5959
vn 0.0011 -1.0000 0.0042
vn 0.0010 -1.0000 0.0041
vn 0.0074 0.1971 -0.9804
vn -0.0156 0.2199 -0.9754
vn 0.9184 0.3611 0.1618
vn 0.9368 0.3470 0.0442
vn 0.9294 0.3625 0.0698
vn 0.9118 0.3750 0.1674
vn -0.2988 0.8539 0.4262
vn -0.4633 0.8028 0.3753
vn -0.2921 0.8559 0.4267
vn 0.3097 0.2708 0.9115
vn 0.2831 0.2781 0.9179
vn 0.2866 0.2921 0.9124
vn 0.2224 0.3051 0.9260
vn -0.7721 0.2210 -0.5958
vn -0.7541 0.2757 -0.5960
vn -0.7103 0.3831 -0.5906
vn 0.0014 -1.0000 0.0034
vn 0.0011 -1.0000 0.0029
vn 0.3771 0.2352 0.8958
vn 0.3327 0.2397 0.9121
vn 0.9309 0.3348 0.1461
vn 0.9426 0.3317 0.0379
vn -0.7300 0.0333 0.6826
vn -0.7137 -0.0128 0.7004
vn -0.6390 0.0044 0.7692
vn -0.6165 0.1552 0.7719
vn -0.5624 0.2874 0.7753
vn -0.6072 0.2848 0.7417
vn -0.5766 0.2867 0.7651
vn -0.0215 0.1592 -0.9870
vn -0.0469 0.1391 -0.9892
vn 0.0380 0.1617 -0.9861
vn -0.5209 0.8155 -0.2524
vn 0.3928 0.2481 0.8855
vn 0.4693 0.2504 0.8468
vn 0.8831 0.2029 -0.4231
vn 0.9172 0.0719 -0.3920
vn 0.9251 0.0242 -0.3789
vn 0.4256 0.8689 -0.2527
vn 0.4113 0.8787 -0.2425
vn 0.4284 0.8669 -0.2547
vn 0.4364 0.8613 -0.2604
vn 0.9398 0.3322 -0.0795
vn 0.9383 0.3356 -0.0840
vn 0.7385 0.4502 -0.5019
vn 0.7913 0.3794 -0.4795
vn 0.7670 0.4135 -0.4906
vn -0.5593 0.1594 0.8135
vn -0.1210 0.9923 0.0253
vn -0.0015 -1.0000 0.0036
vn -0.0011 -1.0000 0.0032
vn -0.9682 0.0357 0.2477
vn -0.9800 0.0399 0.1949
vn -0.9813 0.0405 0.1881
vn -0.8573 0.4423 0.2635
vn -0.8459 0.4346 0.3091
vn -0.8229 0.4900 0.2875
vn -0.8294 0.5040 0.2411
vn 0.9425 0.3261 -0.0732
vn -0.5819 0.0151 0.8131
vn -0.3878 0.0762 -0.9186
vn -0.3873 0.0770 -0.9187
vn -0.3814 0.0860 -0.9204
vn 0.9844 -0.1758 0.0014
vn 0.9773 -0.1351 0.1632
vn 0.9852 -0.1684 0.0322
vn 0.8417 0.2808 -0.4611
vn 0.8523 0.2710 -0.4473
vn 0.0788 -0.2284 0.9704
vn 0.0328 -0.2659 0.9634
vn -0.0961 -0.3653 0.9259
vn 0.0903 0.0684 -0.9936
vn 0.0554 0.0588 -0.9967
vn 0.0265 0.0991 -0.9947
vn 0.0507 0.1218 -0.9913
vn 0.0128 0.0471 -0.9988
vn -0.0029 0.0762 -0.9971
vn 0.9649 -0.2108 -0.1566
vn 0.7255 -0.1072 0.6799
vn -0.7605 -0.0874 -0.6435
vn -0.7787 0.0181 -0.6271
vn -0.7759 -0.0025 -0.6309
vn 0.8215 0.3230 -0.4699
vn 0.8255 0.3074 -0.4733
vn 0.9554 0.2924 0.0422
vn 0.9537 0.2912 -0.0746
vn 0.9468 0.3139 -0.0711
vn 0.9514 0.3068 0.0272
vn -0.5929 -0.0400 0.8043
vn -0.6428 -0.0537 0.7641
vn 0.0006 0.1405 -0.9901
vn 0.0340 0.1532 -0.9876
vn -0.0329 0.1319 -0.9907
vn 0.9485 0.2907 0.1258
vn 0.9427 0.3068 0.1312
vn 0.4163 0.2111 0.8844
vn 0.3662 0.1787 0.9132
vn 0.3684 0.2026 0.9073
vn 0.4069 0.2169 0.8874
vn -0.7852 0.1535 -0.6000
vn -0.7861 0.1367 -0.6028
vn -0.8592 0.4602 0.2234
vn -0.8318 0.5104 0.2181
vn -0.6917 -0.0677 0.7190
vn -0.4396 -0.0846 -0.8942
vn -0.4211 -0.0197 -0.9068
vn -0.4165 -0.0045 -0.9091
vn -0.6232 0.7192 0.3073
vn -0.9724 0.0541 0.2272
vn -0.9907 0.0450 0.1286
vn 0.4072 0.1826 0.8949
vn 0.3965 0.2099 0.8937
vn 0.4571 0.1989 0.8669
vn 0.4709 0.2238 0.8533
vn 0.0018 -1.0000 0.0041
vn -0.2844 0.8583 0.4272
vn -0.1477 0.8678 0.4745
vn -0.8922 0.3890 0.2294
vn -0.8749 0.3917 0.2848
vn -0.8606 0.3928 0.3241
vn -0.0019 -1.0000 0.0041
vn -0.0975 0.7467 -0.6579
vn 0.2415 -0.0872 0.9665
vt 0.018384 0.911872
vt 0.002186 0.916037
vt 0.027891 0.861458
vt 0.048541 0.864317
vt 0.017291 0.854947
vt 0.012723 0.889258
vt 0.023578 0.887265
vt 0.032010 0.908751
vt 0.001953 0.886244
vt 0.048310 0.886749
vt 0.004493 0.874891
vt 0.008120 0.858060
vt 0.811519 0.132796
vt 0.796739 0.139653
vt 0.790309 0.116263
vt 0.806461 0.116428
vt 0.074122 0.900077
vt 0.083110 0.928368
vt 0.028209 0.932523
vt 0.003569 0.952028
vt 0.783478 0.255849
vt 0.776091 0.289076
vt 0.754119 0.261458
vt 0.757022 0.244224
vt 0.804185 0.256712
vt 0.823557 0.281454
vt 0.045810 0.933088
vt 0.810745 0.241115
vt 0.786267 0.241086
vt 0.073609 0.869323
vt 0.780770 0.153951
vt 0.774021 0.122266
vt 0.781508 0.113518
vt 0.855609 0.148251
vt 0.829088 0.133971
vt 0.817239 0.116583
vt 0.843279 0.118137
vt 0.071328 0.938404
vt 0.053132 0.943493
vt 0.051180 0.938578
vt 0.790726 0.227204
vt 0.763066 0.213708
vt 0.782677 0.218917
vt 0.857560 0.153001
vt 0.836825 0.150538
vt 0.800900 0.158189
vt 0.782792 0.164817
vt 0.039068 0.965965
vt 0.039909 0.972969
vt 0.025415 0.974770
vt 0.028556 0.960500
vt 0.002850 0.958062
vt 0.026217 0.950441
vt 0.027197 0.955487
vt 0.081229 0.904428
vt 0.085229 0.929458
vt 0.081114 0.873015
vt 0.815444 0.146741
vt 0.760999 0.180564
vt 0.778778 0.198857
vt 0.769556 0.108545
vt 0.769348 0.126847
vt 0.754119 0.121683
vt 0.769151 0.156071
vt 0.758642 0.147193
vt 0.002156 0.964026
vt 0.036319 0.938589
vt 0.769556 0.311101
vt 0.756789 0.286441
vt 0.075212 0.987135
vt 0.050360 0.995558
vt 0.066136 0.965377
vt 0.037665 0.952527
vt 0.769826 0.163428
vt 0.001953 0.975904
vt 0.091011 0.933232
vt 0.077756 0.945358
vt 0.789188 0.195897
vt 0.759884 0.164040
vt 0.771753 0.170546
vt 0.842257 0.213002
vt 0.834513 0.191724
vt 0.847239 0.178759
vt 0.858274 0.209714
vt 0.130900 0.902321
vt 0.132650 0.934615
vt 0.102894 0.917657
vt 0.102950 0.884601
vt 0.118016 0.945478
vt 0.099853 0.937779
vt 0.816387 0.224013
vt 0.813644 0.206624
vt 0.875700 0.183784
vt 0.863618 0.167034
vt 0.100603 0.967088
vt 0.088213 0.954935
vt 0.759214 0.155684
vt 0.785126 0.179224
vt 0.002350 0.997550
vt 0.031329 0.998047
vt 0.088395 0.908847
vt 0.088521 0.876756
vt 0.805074 0.176900
vt 0.844697 0.167107
vt 0.859551 0.157704
vt 0.055024 0.949304
vt 0.824828 0.171989
vt 0.803703 0.299109
vt 0.791094 0.308370
vt 0.826115 0.216841
s 1
usemtl Stone
f 15/1/1 9/1/2 10/2/3 24/2/4
f 17/3/5 1/3/5 3/4/6 18/4/7
f 1/3/8 2/5/8 8/6/8 4/7/8
f 21/8/9 5/8/9 9/1/2 15/1/1
f 24/2/4 10/2/3 7/9/10 20/9/11
f 19/7/12 21/8/13 15/1/14 14/6/15
f 18/4/16 22/10/17 19/7/18 17/3/16
f 22/10/17 21/8/19 19/7/18
f 22/10/20 6/10/21 5/8/22 21/8/22
f 8/6/8 7/9/8 10/2/8 9/1/8
f 14/6/15 15/1/14 24/2/23 20/9/24
f 17/3/25 19/7/12 14/6/15 16/5/26
f 14/6/15 20/9/24 13/11/27 23/12/27 16/5/26
f 23/12/28 12/12/29 2/5/30 16/5/31
f 16/5/31 2/5/30 1/3/32 17/3/32
f 18/4/7 3/4/6 6/10/21 22/10/20
f 4/7/8 8/6/8 9/1/8 5/8/8
f 6/10/8 4/7/8 5/8/8
f 3/4/8 1/3/8 4/7/8 6/10/8
f 8/6/8 2/5/8 12/12/8 11/11/8 7/9/8
f 13/11/33 11/11/34 12/12/29 23/12/28
f 20/9/11 7/9/10 11/11/34 13/11/33
f 41/3/35 25/3/35 27/4/36 42/4/37
f 39/1/38 33/1/39 34/2/40 48/2/41
f 48/2/41 34/2/40 31/9/42 44/9/43
f 30/10/8 28/7/8 29/8/8
f 25/3/8 26/5/8 32/6/8 28/7/8
f 28/7/8 32/6/8 33/1/8 29/8/8
f 27/4/8 25/3/8 28/7/8 30/10/8
f 32/6/8 31/9/8 34/2/8 33/1/8
f 32/6/8 26/5/8 36/12/8 35/11/8 31/9/8
f 42/4/37 27/4/36 30/10/44 46/10/45
f 46/10/46 45/8/47 43/7/48
f 43/7/49 45/8/50 39/1/51 38/6/52
f 38/6/52 44/9/53 37/11/54 47/12/54 40/5/55
f 45/8/56 29/8/56 33/1/39 39/1/38
f 41/3/57 43/7/49 38/6/52 40/5/55
f 44/9/43 31/9/42 35/11/58 37/11/59
f 40/5/60 26/5/61 25/3/62 41/3/62
f 38/6/52 39/1/51 48/2/63 44/9/53
f 47/12/64 36/12/65 26/5/61 40/5/60
f 37/11/59 35/11/58 36/12/65 47/12/64
f 46/10/45 30/10/44 29/8/66 45/8/66
f 42/4/67 46/10/46 43/7/48 41/3/67
f 68/9/68 55/9/69 59/11/70 61/11/71
f 70/10/72 54/10/73 53/8/74 69/8/74
f 72/2/75 58/2/76 55/9/69 68/9/68
f 67/7/77 69/8/78 63/1/79 62/6/80
f 64/5/81 50/5/82 49/3/83 65/3/83
f 52/7/8 56/6/8 57/1/8 53/8/8
f 66/4/84 51/4/85 54/10/73 70/10/72
f 63/1/86 57/1/87 58/2/76 72/2/75
f 69/8/88 53/8/88 57/1/87 63/1/86
f 61/11/71 59/11/70 60/12/89 71/12/90
f 62/6/80 63/1/79 72/2/91 68/9/92
f 65/3/93 49/3/93 51/4/85 66/4/84
f 70/10/94 69/8/95 67/7/96
f 54/10/8 52/7/8 53/8/8
f 51/4/8 49/3/8 52/7/8 54/10/8
f 71/12/90 60/12/89 50/5/82 64/5/81
f 62/6/80 68/9/92 61/11/97 71/12/97 64/5/98
f 65/3/99 67/7/77 62/6/80 64/5/98
f 66/4/100 70/10/94 67/7/96 65/3/100
f 56/6/8 55/9/8 58/2/8 57/1/8
f 56/6/8 50/5/8 60/12/8 59/11/8 55/9/8
f 49/3/8 50/5/8 56/6/8 52/7/8
f 83/6/101 82/1/102 73/2/103 77/9/104
f 75/10/105 76/8/106 78/7/107
f 80/3/108 78/7/109 83/6/101 81/5/110
f 79/4/111 75/10/105 78/7/107 80/3/111
f 78/7/109 76/8/112 82/1/102 83/6/101
f 83/6/101 77/9/104 84/11/113 74/12/113 81/5/110
f 89/6/8 90/9/8 87/2/8 88/1/8
f 91/10/8 93/7/8 92/8/8
f 96/3/8 95/5/8 89/6/8 93/7/8
f 94/4/8 96/3/8 93/7/8 91/10/8
f 93/7/8 89/6/8 88/1/8 92/8/8
f 89/6/8 95/5/8 85/12/8 86/11/8 90/9/8
f 75/10/114 91/10/115 92/8/116 76/8/116
f 74/12/117 85/12/118 95/5/119 81/5/120
f 77/9/121 90/9/122 86/11/123 84/11/124
f 81/5/120 95/5/119 96/3/125 80/3/125
f 73/2/126 87/2/127 90/9/122 77/9/121
f 84/11/124 86/11/123 85/12/118 74/12/117
f 80/3/128 96/3/128 94/4/129 79/4/130
f 82/1/131 88/1/132 87/2/127 73/2/126
f 79/4/130 94/4/129 91/10/115 75/10/114
f 76/8/133 92/8/133 88/1/132 82/1/131
f 107/6/134 106/1/135 97/2/136 101/9/137
f 99/10/138 100/8/139 102/7/140
f 104/3/141 102/7/142 107/6/134 105/5/143
f 103/4/144 99/10/138 102/7/140 104/3/144
f 102/7/142 100/8/145 106/1/135 107/6/134
f 107/6/134 101/9/137 108/11/146 98/12/146 105/5/143
f 113/6/8 114/9/8 111/2/8 112/1/8
f 115/10/8 117/7/8 116/8/8
f 120/3/8 119/5/8 113/6/8 117/7/8
f 118/4/8 120/3/8 117/7/8 115/10/8
f 117/7/8 113/6/8 112/1/8 116/8/8
f 113/6/8 119/5/8 109/12/8 110/11/8 114/9/8
f 99/10/147 115/10/148 116/8/149 100/8/149
f 98/12/150 109/12/151 119/5/152 105/5/153
f 101/9/154 114/9/155 110/11/156 108/11/157
f 105/5/153 119/5/152 120/3/158 104/3/158
f 97/2/159 111/2/160 114/9/155 101/9/154
f 108/11/157 110/11/156 109/12/151 98/12/150
f 104/3/161 120/3/161 118/4/162 103/4/163
f 106/1/164 112/1/165 111/2/160 97/2/159
f 103/4/163 118/4/162 115/10/148 99/10/147
f 100/8/166 116/8/166 112/1/165 106/1/164
f 131/6/167 130/1/168 121/2/169 125/9/170
f 123/10/171 124/8/172 126/7/173
f 128/3/174 126/7/175 131/6/167 129/5/176
f 127/4/177 123/10/171 126/7/173 128/3/177
f 126/7/175 124/8/178 130/1/168 131/6/167
f 131/6/167 125/9/170 132/11/179 122/12/179 129/5/176
f 137/6/8 138/9/8 135/2/8 136/1/8
f 139/10/8 141/7/8 140/8/8
f 144/3/8 143/5/8 137/6/8 141/7/8
f 142/4/8 144/3/8 141/7/8 139/10/8
f 141/7/8 137/6/8 136/1/8 140/8/8
f 137/6/8 143/5/8 133/12/8 134/11/8 138/9/8
f 123/10/180 139/10/181 140/8/182 124/8/182
f 122/12/183 133/12/184 143/5/185 129/5/186
f 125/9/187 138/9/188 134/11/189 132/11/190
f 129/5/186 143/5/185 144/3/191 128/3/191
f 121/2/192 135/2/193 138/9/188 125/9/187
f 132/11/190 134/11/189 133/12/184 122/12/183
f 128/3/194 144/3/194 142/4/195 127/4/196
f 130/1/197 136/1/198 135/2/193 121/2/192
f 127/4/196 142/4/195 139/10/181 123/10/180
f 124/8/199 140/8/199 136/1/198 130/1/197
f 212/13/200 160/14/201 148/15/202 209/16/203
f 164/17/204 161/18/205 150/10/206
f 207/19/207 159/20/208 146/2/208 204/1/209
f 158/21/210 152/22/211 149/23/212 156/24/213
f 205/6/214 204/1/215 146/2/216 155/9/217
f 150/10/218 153/8/219 157/7/220
f 154/25/221 145/26/222 152/22/211 158/21/210
f 161/18/223 162/27/223 153/8/223 150/10/223
f 210/28/224 154/25/221 158/21/210 211/29/225
f 168/30/226 164/17/204 150/10/206 171/4/227
f 160/14/228 163/31/229 173/32/230 174/33/231 148/15/231
f 172/3/232 157/7/233 205/6/214 174/5/234
f 159/34/235 165/35/236 155/36/237 146/37/238
f 227/38/239 218/39/240 176/40/241
f 151/41/242 211/29/225 158/21/210 156/24/213 167/42/243 166/43/243
f 216/44/244 223/45/245 165/35/236 159/34/235
f 219/46/246 221/47/247 163/31/229 160/14/228
f 208/48/248 203/49/249 202/50/250 189/51/251
f 216/52/252 159/20/253 175/53/253 215/54/254
f 222/55/255 220/56/256 161/18/205 164/17/204
f 224/57/257 222/55/255 164/17/204 168/30/226
f 171/4/258 150/10/218 157/7/220 172/3/258
f 226/58/259 219/46/260 160/14/201 212/13/200
f 187/59/261 188/60/262 166/43/263 167/42/263
f 172/61/264 174/33/265 173/32/266
f 172/61/264 173/32/266 170/62/267 171/63/267
f 163/31/229 169/64/268 170/62/269 173/32/230
f 170/62/270 169/64/271 168/65/272 171/63/270
f 216/52/252 215/54/254 189/51/251 190/66/273
f 162/27/274 176/40/274 206/67/274 207/19/274
f 149/23/212 152/22/211 178/68/275 177/69/276
f 178/70/277 200/71/277 203/49/278 179/72/279
f 225/73/280 215/54/281 175/53/282 206/67/283
f 221/47/247 217/74/284 169/64/268 163/31/229
f 186/75/285 190/66/273 189/51/251 202/50/250
f 194/76/286 199/77/287 227/38/288 220/56/288
f 151/41/289 166/43/290 188/60/290 183/78/291
f 198/79/292 191/80/293 188/60/262 187/59/261
f 210/81/294 214/82/295 185/83/296 154/84/296
f 167/85/297 156/86/298 184/87/299 187/88/300
f 156/86/298 149/89/301 182/90/302 184/87/299
f 147/91/303 151/41/289 183/78/291 181/92/303
f 145/93/304 154/84/304 185/83/304 186/94/304
f 177/95/305 178/70/305 179/72/306 180/96/307
f 224/97/308 217/74/309 191/80/293 198/79/292
f 183/78/310 188/60/311 191/80/312 195/98/313
f 145/99/314 186/75/285 202/50/250 201/100/315
f 187/88/300 184/87/299 196/101/316 198/102/317
f 184/87/299 182/90/302 194/76/318 196/101/316
f 181/92/319 183/78/310 195/98/313 193/103/320
f 186/94/321 185/83/322 197/104/323 190/105/324
f 180/96/307 179/72/306 192/106/325 199/77/326
f 218/39/327 225/73/280 206/67/283 176/40/328
f 200/71/329 201/100/315 202/50/250 203/49/249
f 149/89/330 177/95/330 180/96/331 182/90/332
f 157/7/233 153/8/333 204/1/215 205/6/214
f 162/27/334 207/19/207 204/1/209 153/8/334
f 179/72/279 203/49/278 208/48/335 192/106/335
f 185/83/322 214/82/336 213/107/337 197/104/323
f 214/82/336 181/92/338 193/103/339 213/107/337
f 223/45/245 226/58/259 212/13/200 165/35/236
f 147/91/340 210/28/224 211/29/225 151/41/242
f 165/35/236 212/13/200 209/16/203 155/36/237
f 205/6/214 155/9/217 209/11/341 148/12/341 174/5/234
f 175/53/342 159/20/342 207/19/342 206/67/342
f 197/104/323 213/107/337 226/58/259 223/45/245
f 192/106/343 208/48/344 225/73/280 218/39/327
f 182/90/332 180/96/331 199/77/287 194/76/286
f 168/65/272 169/64/271 217/74/309 224/97/308
f 195/98/313 191/80/312 217/74/284 221/47/247
f 208/48/344 189/51/345 215/54/281 225/73/280
f 213/107/337 193/103/339 219/46/260 226/58/259
f 198/102/317 196/101/316 222/55/255 224/57/257
f 196/101/316 194/76/318 220/56/256 222/55/255
f 193/103/320 195/98/313 221/47/247 219/46/246
f 190/105/324 197/104/323 223/45/245 216/44/244
f 199/77/326 192/106/325 218/39/240 227/38/239
f 152/22/211 145/26/222 201/108/346 200/109/346 178/68/275
f 176/40/347 162/27/347 161/18/347 220/56/347 227/38/347
f 210/81/294 147/110/348 181/92/348 214/82/295
